<?xml version="1.0" encoding="UTF-8"?>
<!DOCTYPE svg PUBLIC "-//W3C//DTD SVG 1.1//EN" "http://www.w3.org/Graphics/SVG/1.1/DTD/svg11.dtd">
<svg version="1.2" width="109.13mm" height="14.06mm" viewBox="4817 1096 10913 1406" preserveAspectRatio="xMidYMid" fill-rule="evenodd" stroke-width="28.222" stroke-linejoin="round" xmlns="http://www.w3.org/2000/svg" xmlns:ooo="http://xml.openoffice.org/svg/export" xmlns:xlink="http://www.w3.org/1999/xlink" xmlns:presentation="http://sun.com/xmlns/staroffice/presentation" xmlns:smil="http://www.w3.org/2001/SMIL20/" xmlns:anim="urn:oasis:names:tc:opendocument:xmlns:animation:1.0" xmlns:svg="urn:oasis:names:tc:opendocument:xmlns:svg-compatible:1.0" xml:space="preserve">
 <defs class="EmbeddedBulletChars">
  <g id="bullet-char-template-57356" transform="scale(0.00048828125,-0.00048828125)">
   <path d="M 580,1141 L 1163,571 580,0 -4,571 580,1141 Z"/>
  </g>
  <g id="bullet-char-template-57354" transform="scale(0.00048828125,-0.00048828125)">
   <path d="M 8,1128 L 1137,1128 1137,0 8,0 8,1128 Z"/>
  </g>
  <g id="bullet-char-template-10146" transform="scale(0.00048828125,-0.00048828125)">
   <path d="M 174,0 L 602,739 174,1481 1456,739 174,0 Z M 1358,739 L 309,1346 659,739 1358,739 Z"/>
  </g>
  <g id="bullet-char-template-10132" transform="scale(0.00048828125,-0.00048828125)">
   <path d="M 2015,739 L 1276,0 717,0 1260,543 174,543 174,936 1260,936 717,1481 1274,1481 2015,739 Z"/>
  </g>
  <g id="bullet-char-template-10007" transform="scale(0.00048828125,-0.00048828125)">
   <path d="M 0,-2 C -7,14 -16,27 -25,37 L 356,567 C 262,823 215,952 215,954 215,979 228,992 255,992 264,992 276,990 289,987 310,991 331,999 354,1012 L 381,999 492,748 772,1049 836,1024 860,1049 C 881,1039 901,1025 922,1006 886,937 835,863 770,784 769,783 710,716 594,584 L 774,223 C 774,196 753,168 711,139 L 727,119 C 717,90 699,76 672,76 641,76 570,178 457,381 L 164,-76 C 142,-110 111,-127 72,-127 30,-127 9,-110 8,-76 1,-67 -2,-52 -2,-32 -2,-23 -1,-13 0,-2 Z"/>
  </g>
  <g id="bullet-char-template-10004" transform="scale(0.00048828125,-0.00048828125)">
   <path d="M 285,-33 C 182,-33 111,30 74,156 52,228 41,333 41,471 41,549 55,616 82,672 116,743 169,778 240,778 293,778 328,747 346,684 L 369,508 C 377,444 397,411 428,410 L 1163,1116 C 1174,1127 1196,1133 1229,1133 1271,1133 1292,1118 1292,1087 L 1292,965 C 1292,929 1282,901 1262,881 L 442,47 C 390,-6 338,-33 285,-33 Z"/>
  </g>
  <g id="bullet-char-template-9679" transform="scale(0.00048828125,-0.00048828125)">
   <path d="M 813,0 C 632,0 489,54 383,161 276,268 223,411 223,592 223,773 276,916 383,1023 489,1130 632,1184 813,1184 992,1184 1136,1130 1245,1023 1353,916 1407,772 1407,592 1407,412 1353,268 1245,161 1136,54 992,0 813,0 Z"/>
  </g>
  <g id="bullet-char-template-8226" transform="scale(0.00048828125,-0.00048828125)">
   <path d="M 346,457 C 273,457 209,483 155,535 101,586 74,649 74,723 74,796 101,859 155,911 209,963 273,989 346,989 419,989 480,963 531,910 582,859 608,796 608,723 608,648 583,586 532,535 482,483 420,457 346,457 Z"/>
  </g>
  <g id="bullet-char-template-8211" transform="scale(0.00048828125,-0.00048828125)">
   <path d="M -4,459 L 1135,459 1135,606 -4,606 -4,459 Z"/>
  </g>
  <g id="bullet-char-template-61548" transform="scale(0.00048828125,-0.00048828125)">
   <path d="M 173,740 C 173,903 231,1043 346,1159 462,1274 601,1332 765,1332 928,1332 1067,1274 1183,1159 1299,1043 1357,903 1357,740 1357,577 1299,437 1183,322 1067,206 928,148 765,148 601,148 462,206 346,322 231,437 173,577 173,740 Z"/>
  </g>
 </defs>
 <g class="Page">
  <g class="Group">
   <g class="com.sun.star.drawing.ClosedBezierShape">
    <g id="id3">
     <rect class="BoundingBox" stroke="none" fill="none" x="4817" y="1167" width="1296" height="1335"/>
     <path fill="rgb(0,0,0)" stroke="none" d="M 5822,1329 L 5408,1329 C 5384,1329 5376,1314 5390,1292 5396,1287 5400,1280 5404,1274 5413,1261 5422,1254 5437,1251 L 5442,1250 C 5449,1249 5455,1247 5455,1243 5455,1233 5415,1215 5269,1170 5249,1163 5236,1171 5231,1189 5219,1229 5201,1271 5180,1308 5173,1323 5160,1329 5144,1329 L 5009,1329 C 4960,1328 4912,1326 4864,1322 4840,1321 4830,1333 4841,1356 L 4847,1367 C 4855,1383 4868,1388 4885,1385 4937,1377 4989,1371 5043,1370 L 5099,1370 C 5123,1370 5132,1385 5118,1407 5040,1510 4944,1601 4840,1666 4823,1678 4816,1686 4819,1690 4821,1695 4831,1695 4847,1689 4916,1665 4985,1634 5049,1597 5074,1583 5095,1603 5080,1628 5030,1710 4974,1782 4919,1836 4905,1848 4899,1858 4903,1862 4907,1867 4917,1868 4933,1860 4971,1843 5010,1820 5050,1796 5070,1782 5085,1790 5085,1814 L 5085,2080 C 5085,2098 5095,2109 5112,2109 5190,2109 5235,2067 5235,2053 L 5235,2051 C 5235,2051 5243,2051 5259,2051 L 5572,2051 C 5590,2051 5602,2063 5602,2081 L 5602,2115 C 5602,2133 5590,2145 5572,2145 L 4996,2145 C 4947,2143 4899,2142 4850,2138 4827,2135 4817,2150 4827,2171 L 4833,2183 C 4840,2198 4852,2204 4869,2201 4931,2193 4991,2187 5056,2186 L 5572,2186 C 5590,2186 5602,2197 5602,2215 L 5602,2328 C 5602,2345 5595,2352 5573,2352 5554,2352 5468,2346 5421,2344 5401,2342 5390,2345 5390,2351 5390,2356 5400,2362 5418,2366 5470,2376 5496,2390 5516,2407 5533,2423 5540,2445 5545,2473 5548,2493 5559,2503 5579,2500 5727,2482 5750,2428 5750,2329 L 5750,2215 C 5750,2197 5761,2186 5779,2186 L 6062,2186 C 6072,2186 6081,2183 6088,2178 6100,2170 6098,2157 6090,2146 6063,2109 5978,2036 5964,2036 5953,2036 5937,2064 5919,2091 L 5897,2125 C 5888,2138 5877,2145 5861,2145 L 5779,2145 C 5761,2145 5750,2133 5750,2115 L 5750,2105 C 5750,2088 5758,2080 5775,2073 5777,2071 5779,2070 5781,2068 5794,2060 5801,2051 5816,2051 L 5906,2051 C 5915,2051 5923,2050 5930,2047 5945,2040 5939,2023 5925,2011 5899,1988 5873,1964 5849,1944 5829,1926 5826,1908 5843,1908 5854,1908 5863,1905 5870,1900 5880,1892 5878,1879 5870,1869 5843,1837 5765,1779 5751,1779 5740,1779 5726,1802 5709,1823 L 5691,1848 C 5682,1861 5669,1867 5654,1867 L 5583,1867 C 5565,1867 5554,1855 5554,1837 L 5554,1805 C 5554,1786 5565,1775 5583,1775 L 5827,1775 C 5837,1775 5847,1772 5854,1768 5864,1759 5864,1747 5856,1735 5829,1703 5751,1644 5737,1644 5726,1644 5712,1666 5693,1689 L 5674,1716 C 5665,1728 5654,1734 5638,1734 L 5583,1734 C 5565,1734 5554,1723 5554,1704 L 5554,1666 C 5554,1648 5565,1637 5583,1637 L 5812,1637 C 5826,1637 5837,1639 5850,1649 5887,1676 5928,1702 5970,1721 5988,1730 6001,1723 6007,1703 6019,1659 6049,1621 6091,1593 6104,1583 6110,1577 6111,1570 6112,1565 6103,1559 6083,1556 5950,1536 5796,1487 5692,1407 5671,1390 5681,1370 5707,1370 L 6040,1370 C 6052,1370 6060,1367 6069,1363 6079,1354 6079,1342 6070,1332 6039,1294 5946,1219 5932,1219 5921,1219 5904,1247 5882,1274 L 5857,1311 C 5849,1323 5837,1329 5822,1329 Z M 5528,1562 C 5544,1551 5561,1541 5575,1531 5585,1525 5592,1521 5604,1517 L 5614,1512 C 5621,1510 5627,1505 5627,1501 5627,1491 5593,1474 5473,1441 5453,1433 5439,1442 5437,1462 5431,1497 5421,1536 5411,1572 5407,1589 5396,1597 5379,1597 L 5312,1597 C 5288,1597 5280,1582 5295,1562 5300,1555 5304,1548 5310,1541 5318,1528 5328,1521 5342,1517 L 5349,1515 C 5359,1512 5365,1510 5365,1504 5365,1496 5346,1483 5293,1460 5271,1450 5267,1435 5283,1419 5293,1408 5304,1397 5314,1385 5325,1374 5336,1370 5350,1370 L 5583,1370 C 5599,1370 5610,1376 5619,1390 5641,1426 5665,1462 5691,1496 5702,1510 5700,1524 5691,1538 L 5658,1580 C 5648,1592 5637,1597 5621,1597 L 5538,1597 C 5510,1597 5503,1577 5528,1562 Z M 5235,1704 L 5235,1666 C 5235,1648 5246,1637 5264,1637 L 5365,1637 C 5383,1637 5394,1648 5394,1666 L 5394,1704 C 5394,1723 5383,1734 5365,1734 L 5264,1734 C 5246,1734 5235,1723 5235,1704 Z M 5235,1837 L 5235,1805 C 5235,1786 5246,1775 5264,1775 L 5365,1775 C 5383,1775 5394,1786 5394,1805 L 5394,1837 C 5394,1855 5383,1867 5365,1867 L 5264,1867 C 5246,1867 5235,1855 5235,1837 Z M 5394,1937 L 5394,1982 C 5394,2001 5383,2012 5365,2012 L 5264,2012 C 5246,2012 5235,2001 5235,1982 L 5235,1937 C 5235,1919 5246,1908 5264,1908 L 5365,1908 C 5383,1908 5394,1919 5394,1937 Z M 5554,1982 L 5554,1937 C 5554,1919 5565,1908 5583,1908 L 5746,1908 C 5770,1908 5778,1924 5764,1944 L 5727,1994 C 5719,2006 5707,2012 5692,2012 L 5583,2012 C 5565,2012 5554,2001 5554,1982 Z M 5089,2225 C 5140,2269 5191,2334 5211,2397 5215,2411 5222,2421 5236,2427 5247,2431 5259,2432 5270,2432 5315,2432 5346,2394 5346,2349 5346,2284 5281,2204 5097,2195 5081,2195 5073,2197 5070,2200 5067,2202 5074,2211 5089,2225 Z"/>
    </g>
   </g>
   <g class="com.sun.star.drawing.ClosedBezierShape">
    <g id="id4">
     <rect class="BoundingBox" stroke="none" fill="none" x="6230" y="1185" width="1284" height="1304"/>
     <path fill="rgb(0,0,0)" stroke="none" d="M 7211,1259 L 6793,1259 C 6780,1259 6770,1257 6758,1251 L 6650,1205 C 6629,1195 6615,1206 6618,1230 6622,1274 6624,1326 6624,1371 L 6624,1517 C 6624,1535 6631,1546 6643,1546 6700,1546 6766,1515 6766,1503 6766,1494 6777,1490 6796,1490 L 7216,1490 C 7235,1490 7246,1494 7246,1501 7246,1508 7256,1514 7271,1514 7281,1514 7291,1512 7301,1511 7316,1508 7314,1525 7298,1546 L 7294,1552 C 7284,1563 7273,1569 7257,1569 L 6735,1569 C 6686,1568 6638,1566 6590,1562 6566,1560 6556,1573 6567,1596 L 6573,1606 C 6580,1621 6593,1627 6610,1624 6672,1615 6731,1610 6796,1608 L 7456,1608 C 7465,1608 7473,1607 7479,1604 7493,1596 7487,1580 7473,1569 7449,1548 7422,1525 7400,1508 7384,1494 7388,1476 7388,1476 L 7388,1346 C 7388,1329 7397,1321 7414,1314 7417,1311 7419,1309 7422,1308 7436,1299 7438,1287 7428,1275 7397,1242 7318,1185 7304,1185 7292,1185 7280,1203 7263,1222 L 7247,1242 C 7237,1253 7226,1259 7211,1259 Z M 6288,1251 C 6333,1312 6377,1394 6394,1473 6398,1488 6402,1498 6416,1505 6432,1515 6447,1520 6463,1520 6509,1520 6545,1477 6545,1425 6545,1356 6483,1266 6303,1225 6286,1222 6278,1222 6275,1225 6272,1227 6277,1236 6288,1251 Z M 6842,1329 L 6842,1419 C 6842,1438 6831,1449 6813,1449 L 6796,1449 C 6777,1449 6766,1438 6766,1419 L 6766,1329 C 6766,1311 6777,1299 6796,1299 L 6813,1299 C 6831,1299 6842,1311 6842,1329 Z M 7016,1449 L 6992,1449 C 6974,1449 6962,1438 6962,1419 L 6962,1329 C 6962,1311 6974,1299 6992,1299 L 7016,1299 C 7034,1299 7046,1311 7046,1329 L 7046,1419 C 7046,1438 7034,1449 7016,1449 Z M 7195,1299 L 7216,1299 C 7235,1299 7246,1311 7246,1329 L 7246,1419 C 7246,1438 7235,1449 7216,1449 L 7195,1449 C 7177,1449 7165,1438 7165,1419 L 7165,1329 C 7165,1311 7177,1299 7195,1299 Z M 7161,1690 L 6844,1690 C 6831,1690 6821,1689 6808,1683 L 6696,1635 C 6673,1625 6662,1637 6663,1659 6667,1702 6669,1751 6669,1795 L 6669,1851 C 6666,1893 6666,1908 6662,1936 6662,1950 6669,1964 6689,1964 6748,1964 6817,1932 6817,1919 6817,1902 6828,1892 6847,1892 L 6866,1892 C 6890,1892 6900,1908 6886,1927 6818,2027 6718,2112 6595,2176 6578,2184 6571,2193 6574,2198 6577,2204 6587,2205 6605,2201 6714,2170 6811,2132 6893,2083 6913,2070 6928,2078 6928,2102 L 6928,2140 C 6926,2207 6924,2229 6920,2273 6920,2287 6928,2301 6955,2301 7013,2301 7055,2280 7075,2263 7086,2253 7089,2242 7088,2226 7085,2195 7085,2167 7082,2105 L 7082,2073 C 7082,2049 7098,2040 7119,2053 7199,2108 7264,2171 7298,2215 7307,2226 7314,2234 7328,2238 7335,2239 7342,2241 7349,2241 7388,2241 7418,2208 7418,2167 7418,2131 7394,2087 7332,2054 7309,2043 7307,2027 7329,2015 7343,2008 7357,2001 7371,1992 7384,1987 7394,1982 7407,1981 L 7415,1980 C 7424,1978 7431,1975 7431,1971 7431,1961 7414,1947 7367,1917 7347,1905 7349,1886 7349,1886 L 7349,1778 C 7349,1761 7357,1752 7373,1745 7376,1744 7379,1742 7380,1741 7393,1733 7395,1720 7386,1709 7353,1673 7271,1614 7257,1614 7246,1614 7232,1634 7215,1652 L 7198,1673 C 7188,1685 7177,1690 7161,1690 Z M 6347,1795 L 6320,1795 6258,1790 C 6234,1788 6224,1802 6234,1823 L 6237,1829 C 6245,1844 6258,1850 6277,1844 6296,1838 6316,1836 6337,1834 L 6360,1834 C 6378,1834 6389,1845 6389,1864 L 6389,2229 C 6389,2245 6382,2256 6367,2263 6327,2281 6289,2298 6257,2311 6238,2318 6233,2334 6241,2351 L 6298,2469 C 6306,2489 6333,2495 6334,2475 L 6334,2471 6334,2469 C 6334,2468 6339,2462 6348,2451 6391,2400 6453,2327 6499,2262 6514,2242 6529,2243 6539,2265 6628,2434 6737,2471 6982,2471 L 7383,2471 C 7401,2471 7410,2461 7414,2444 7425,2394 7450,2360 7489,2342 7504,2335 7513,2331 7513,2325 7513,2321 7501,2317 7483,2318 7319,2322 7125,2322 6979,2322 6741,2322 6643,2310 6553,2222 6542,2211 6538,2200 6538,2186 L 6538,1881 C 6538,1864 6547,1854 6564,1848 6574,1845 6583,1843 6588,1840 6604,1833 6607,1819 6595,1806 6560,1765 6463,1687 6449,1687 6437,1687 6422,1714 6404,1741 L 6382,1775 C 6374,1788 6363,1795 6347,1795 Z M 6847,1731 L 7167,1731 C 7185,1731 7196,1742 7196,1761 L 7196,1823 C 7196,1841 7185,1853 7167,1853 L 6847,1853 C 6828,1853 6817,1841 6817,1823 L 6817,1761 C 6817,1742 6828,1731 6847,1731 Z M 7247,1961 C 7240,1974 7233,1985 7226,1996 7219,2011 7206,2015 7191,2012 7165,2009 7140,2006 7112,2005 7092,2005 7082,1994 7082,1975 L 7082,1934 C 7082,1920 7089,1903 7089,1903 7095,1895 7105,1892 7120,1892 L 7167,1892 C 7185,1892 7196,1899 7196,1909 7196,1920 7206,1927 7223,1927 7230,1927 7239,1926 7247,1926 7260,1923 7260,1940 7247,1961 Z"/>
    </g>
   </g>
   <g class="com.sun.star.drawing.ClosedBezierShape">
    <g id="id5">
     <rect class="BoundingBox" stroke="none" fill="none" x="7682" y="1583" width="899" height="807"/>
     <path fill="rgb(0,0,0)" stroke="none" d="M 8150,1583 C 7936,1583 7682,1736 7682,2009 7682,2139 7770,2307 7857,2307 7925,2307 8042,2179 8111,2011 8152,1909 8152,1817 8152,1786 8152,1735 8140,1682 8126,1646 8121,1629 8124,1619 8136,1619 8189,1619 8439,1643 8439,1965 8439,2194 8252,2334 8022,2372 8009,2374 7980,2377 7980,2383 7980,2388 8005,2388 8020,2388 8359,2388 8580,2238 8580,1973 8580,1688 8345,1583 8150,1583 Z M 8106,1700 C 8106,1820 8072,1906 8004,2009 7957,2079 7907,2139 7870,2139 7844,2139 7781,2082 7781,1958 7781,1808 7899,1654 8073,1625 8087,1623 8097,1628 8101,1643 8104,1657 8106,1678 8106,1700 Z"/>
    </g>
   </g>
   <g class="com.sun.star.drawing.ClosedBezierShape">
    <g id="id6">
     <rect class="BoundingBox" stroke="none" fill="none" x="8742" y="1155" width="1344" height="1251"/>
     <path fill="rgb(0,0,0)" stroke="none" d="M 10084,1529 L 9971,1156 8742,1156 8742,1527 C 8817,1522 8928,1517 9077,1512 L 8780,1735 C 8913,1848 9038,1963 9154,2079 9270,2195 9369,2304 9452,2404 9473,2393 9502,2376 9540,2353 9600,2318 9651,2289 9693,2266 9735,2243 9781,2223 9833,2204 L 9657,2026 C 9799,1872 9941,1706 10084,1529 Z M 9387,1762 C 9289,1667 9197,1584 9111,1512 9280,1510 9448,1508 9616,1508 9542,1596 9466,1680 9387,1762 Z"/>
    </g>
   </g>
   <g class="com.sun.star.drawing.ClosedBezierShape">
    <g id="id7">
     <rect class="BoundingBox" stroke="none" fill="none" x="10136" y="1144" width="1336" height="1238"/>
     <path fill="rgb(0,0,0)" stroke="none" d="M 11302,2380 C 11339,2266 11395,2132 11470,1977 11365,1963 11258,1931 11149,1881 11253,1768 11346,1641 11428,1500 L 11294,1144 10222,1151 10222,1517 10993,1517 C 10900,1645 10784,1747 10644,1823 10504,1899 10335,1951 10137,1980 10193,2055 10240,2122 10277,2182 10313,2242 10349,2306 10385,2375 10565,2315 10729,2231 10879,2121 11039,2226 11180,2313 11302,2380 Z"/>
    </g>
   </g>
   <g class="com.sun.star.drawing.ClosedBezierShape">
    <g id="id8">
     <rect class="BoundingBox" stroke="none" fill="none" x="11671" y="1096" width="1213" height="1283"/>
     <path fill="rgb(0,0,0)" stroke="none" d="M 12809,1826 C 12826,1766 12850,1706 12882,1645 12759,1604 12624,1565 12476,1529 12329,1492 12194,1465 12069,1448 L 12069,1096 11686,1096 C 11686,1381 11685,1619 11683,1808 11682,1998 11678,2187 11671,2377 L 12069,2377 12069,1838 C 12331,1901 12558,1975 12752,2059 12773,1963 12792,1885 12809,1826 Z"/>
    </g>
   </g>
   <g class="com.sun.star.drawing.ClosedBezierShape">
    <g id="id9">
     <rect class="BoundingBox" stroke="none" fill="none" x="13081" y="1096" width="1213" height="1283"/>
     <path fill="rgb(0,0,0)" stroke="none" d="M 14219,1826 C 14236,1766 14260,1706 14292,1645 14169,1604 14034,1565 13886,1529 13739,1492 13603,1465 13479,1448 L 13479,1096 13096,1096 C 13096,1381 13095,1619 13093,1808 13092,1998 13088,2187 13081,2377 L 13479,2377 13479,1838 C 13741,1901 13968,1975 14162,2059 14183,1963 14202,1885 14219,1826 Z M 14121,1469 L 14236,1425 C 14216,1335 14189,1248 14154,1164 L 14041,1206 C 14079,1302 14106,1390 14121,1469 Z M 13975,1525 L 14087,1481 C 14071,1397 14043,1310 14006,1220 L 13893,1263 C 13929,1349 13957,1437 13975,1525 Z"/>
    </g>
   </g>
   <g class="com.sun.star.drawing.ClosedBezierShape">
    <g id="id10">
     <rect class="BoundingBox" stroke="none" fill="none" x="14346" y="1117" width="1384" height="1263"/>
     <path fill="rgb(0,0,0)" stroke="none" d="M 14454,2147 C 14474,2209 14495,2287 14515,2379 14708,2357 14870,2324 15001,2279 15132,2234 15246,2169 15344,2085 15453,1993 15539,1881 15601,1750 15664,1619 15706,1449 15729,1239 15649,1216 15581,1196 15526,1179 15471,1161 15416,1141 15359,1117 15343,1283 15315,1420 15273,1528 15232,1636 15173,1719 15098,1778 15015,1841 14916,1886 14801,1914 14686,1942 14540,1956 14364,1956 14404,2020 14434,2084 14454,2147 Z M 14927,1687 L 15183,1383 C 15088,1336 14994,1293 14901,1256 14808,1218 14702,1179 14583,1140 14562,1185 14528,1242 14482,1311 14435,1379 14390,1439 14346,1490 14474,1520 14574,1548 14645,1572 14717,1597 14811,1636 14927,1687 Z"/>
    </g>
   </g>
  </g>
 </g>
</svg>