<?xml version="1.0" encoding="UTF-8"?>
<!DOCTYPE svg PUBLIC "-//W3C//DTD SVG 1.1//EN" "http://www.w3.org/Graphics/SVG/1.1/DTD/svg11.dtd">
<svg version="1.2" width="65.53mm" height="40.63mm" viewBox="-9770 3140 6553 4063" preserveAspectRatio="xMidYMid" fill-rule="evenodd" stroke-width="28.222" stroke-linejoin="round" xmlns="http://www.w3.org/2000/svg" xmlns:ooo="http://xml.openoffice.org/svg/export" xmlns:xlink="http://www.w3.org/1999/xlink" xmlns:presentation="http://sun.com/xmlns/staroffice/presentation" xmlns:smil="http://www.w3.org/2001/SMIL20/" xmlns:anim="urn:oasis:names:tc:opendocument:xmlns:animation:1.0" xmlns:svg="urn:oasis:names:tc:opendocument:xmlns:svg-compatible:1.0" xml:space="preserve">
 <defs class="EmbeddedBulletChars">
  <g id="bullet-char-template-57356" transform="scale(0.00048828125,-0.00048828125)">
   <path d="M 580,1141 L 1163,571 580,0 -4,571 580,1141 Z"/>
  </g>
  <g id="bullet-char-template-57354" transform="scale(0.00048828125,-0.00048828125)">
   <path d="M 8,1128 L 1137,1128 1137,0 8,0 8,1128 Z"/>
  </g>
  <g id="bullet-char-template-10146" transform="scale(0.00048828125,-0.00048828125)">
   <path d="M 174,0 L 602,739 174,1481 1456,739 174,0 Z M 1358,739 L 309,1346 659,739 1358,739 Z"/>
  </g>
  <g id="bullet-char-template-10132" transform="scale(0.00048828125,-0.00048828125)">
   <path d="M 2015,739 L 1276,0 717,0 1260,543 174,543 174,936 1260,936 717,1481 1274,1481 2015,739 Z"/>
  </g>
  <g id="bullet-char-template-10007" transform="scale(0.00048828125,-0.00048828125)">
   <path d="M 0,-2 C -7,14 -16,27 -25,37 L 356,567 C 262,823 215,952 215,954 215,979 228,992 255,992 264,992 276,990 289,987 310,991 331,999 354,1012 L 381,999 492,748 772,1049 836,1024 860,1049 C 881,1039 901,1025 922,1006 886,937 835,863 770,784 769,783 710,716 594,584 L 774,223 C 774,196 753,168 711,139 L 727,119 C 717,90 699,76 672,76 641,76 570,178 457,381 L 164,-76 C 142,-110 111,-127 72,-127 30,-127 9,-110 8,-76 1,-67 -2,-52 -2,-32 -2,-23 -1,-13 0,-2 Z"/>
  </g>
  <g id="bullet-char-template-10004" transform="scale(0.00048828125,-0.00048828125)">
   <path d="M 285,-33 C 182,-33 111,30 74,156 52,228 41,333 41,471 41,549 55,616 82,672 116,743 169,778 240,778 293,778 328,747 346,684 L 369,508 C 377,444 397,411 428,410 L 1163,1116 C 1174,1127 1196,1133 1229,1133 1271,1133 1292,1118 1292,1087 L 1292,965 C 1292,929 1282,901 1262,881 L 442,47 C 390,-6 338,-33 285,-33 Z"/>
  </g>
  <g id="bullet-char-template-9679" transform="scale(0.00048828125,-0.00048828125)">
   <path d="M 813,0 C 632,0 489,54 383,161 276,268 223,411 223,592 223,773 276,916 383,1023 489,1130 632,1184 813,1184 992,1184 1136,1130 1245,1023 1353,916 1407,772 1407,592 1407,412 1353,268 1245,161 1136,54 992,0 813,0 Z"/>
  </g>
  <g id="bullet-char-template-8226" transform="scale(0.00048828125,-0.00048828125)">
   <path d="M 346,457 C 273,457 209,483 155,535 101,586 74,649 74,723 74,796 101,859 155,911 209,963 273,989 346,989 419,989 480,963 531,910 582,859 608,796 608,723 608,648 583,586 532,535 482,483 420,457 346,457 Z"/>
  </g>
  <g id="bullet-char-template-8211" transform="scale(0.00048828125,-0.00048828125)">
   <path d="M -4,459 L 1135,459 1135,606 -4,606 -4,459 Z"/>
  </g>
  <g id="bullet-char-template-61548" transform="scale(0.00048828125,-0.00048828125)">
   <path d="M 173,740 C 173,903 231,1043 346,1159 462,1274 601,1332 765,1332 928,1332 1067,1274 1183,1159 1299,1043 1357,903 1357,740 1357,577 1299,437 1183,322 1067,206 928,148 765,148 601,148 462,206 346,322 231,437 173,577 173,740 Z"/>
  </g>
 </defs>
 <g class="Page">
  <g class="Group">
   <g class="com.sun.star.drawing.ClosedBezierShape">
    <g id="id3">
     <rect class="BoundingBox" stroke="none" fill="none" x="-9060" y="3140" width="633" height="1131"/>
     <path fill="rgb(0,0,0)" stroke="none" d="M -8750,3276 C -8767,3276 -8785,3283 -8805,3297 L -8805,3756 C -8781,3756 -8753,3748 -8723,3732 -8693,3717 -8678,3701 -8678,3684 L -8678,3381 C -8678,3311 -8702,3276 -8750,3276 Z M -8974,4080 L -8974,3349 C -8974,3292 -8994,3260 -9032,3252 L -9032,3221 -8890,3141 C -8871,3148 -8852,3162 -8833,3182 -8815,3201 -8805,3219 -8805,3235 -8702,3172 -8642,3141 -8627,3141 -8612,3141 -8589,3160 -8556,3199 -8524,3237 -8507,3272 -8507,3303 L -8507,3699 C -8507,3707 -8559,3731 -8661,3771 -8618,3917 -8567,4015 -8509,4066 -8482,4088 -8456,4098 -8428,4098 L -8428,4141 C -8516,4196 -8571,4224 -8595,4224 -8626,4224 -8665,4166 -8713,4049 -8760,3932 -8786,3855 -8790,3818 L -8805,3822 -8805,4007 C -8805,4042 -8801,4067 -8794,4082 -8786,4097 -8771,4104 -8747,4104 L -8747,4148 -9037,4269 -9059,4224 C -9038,4224 -9019,4212 -9000,4187 -8983,4164 -8974,4128 -8974,4080 Z"/>
    </g>
   </g>
   <g class="com.sun.star.drawing.ClosedBezierShape">
    <g id="id4">
     <rect class="BoundingBox" stroke="none" fill="none" x="-8365" y="3420" width="468" height="805"/>
     <path fill="rgb(0,0,0)" stroke="none" d="M -8019,3420 C -8014,3420 -8002,3427 -7983,3442 -7965,3456 -7946,3477 -7927,3503 -7908,3528 -7899,3554 -7899,3578 L -7899,3815 C -7899,3832 -7924,3853 -7974,3877 -8023,3901 -8072,3921 -8118,3937 -8165,3952 -8190,3960 -8194,3960 -8194,4033 -8162,4077 -8099,4094 -8068,4102 -8031,4106 -7988,4106 L -7988,4146 C -8142,4198 -8224,4224 -8235,4224 -8263,4224 -8292,4204 -8321,4164 -8350,4124 -8364,4077 -8364,4024 L -8364,3550 C -8364,3543 -8311,3520 -8204,3480 -8096,3440 -8035,3420 -8019,3420 Z M -8068,3644 C -8068,3618 -8074,3596 -8086,3577 -8099,3559 -8114,3550 -8133,3550 -8152,3550 -8173,3557 -8195,3571 L -8195,3897 C -8110,3873 -8068,3822 -8068,3744 L -8068,3644 Z"/>
    </g>
   </g>
   <g class="com.sun.star.drawing.ClosedBezierShape">
    <g id="id5">
     <rect class="BoundingBox" stroke="none" fill="none" x="-7764" y="3420" width="487" height="805"/>
     <path fill="rgb(0,0,0)" stroke="none" d="M -7569,3557 C -7578,3557 -7587,3562 -7594,3571 L -7594,3960 C -7594,4033 -7563,4077 -7501,4094 -7469,4102 -7431,4106 -7387,4106 L -7387,4146 C -7541,4198 -7623,4224 -7634,4224 -7662,4224 -7691,4204 -7720,4164 -7749,4124 -7763,4077 -7763,4024 L -7763,3550 C -7763,3543 -7710,3520 -7602,3480 -7494,3440 -7432,3420 -7416,3420 -7411,3420 -7404,3434 -7397,3461 -7389,3488 -7380,3521 -7370,3560 -7361,3598 -7350,3627 -7339,3645 -7329,3663 -7308,3672 -7278,3672 L -7278,3701 C -7299,3710 -7334,3727 -7383,3751 -7433,3775 -7459,3787 -7463,3787 -7477,3787 -7495,3748 -7517,3672 -7538,3595 -7556,3557 -7569,3557 Z"/>
    </g>
   </g>
   <g class="com.sun.star.drawing.ClosedBezierShape">
    <g id="id6">
     <rect class="BoundingBox" stroke="none" fill="none" x="-7221" y="3420" width="537" height="805"/>
     <path fill="rgb(0,0,0)" stroke="none" d="M -6755,3606 L -6755,4005 C -6755,4040 -6749,4064 -6738,4078 -6727,4091 -6709,4101 -6686,4107 L -6686,4138 -6840,4224 C -6860,4215 -6880,4202 -6898,4182 -6915,4163 -6924,4145 -6924,4129 L -7101,4224 C -7104,4222 -7108,4219 -7113,4216 -7119,4213 -7129,4206 -7142,4195 -7156,4184 -7168,4173 -7178,4160 -7207,4129 -7221,4094 -7221,4055 L -7221,3823 C -7221,3808 -7196,3789 -7147,3765 -7098,3742 -7049,3723 -7001,3708 L -6926,3684 C -6926,3630 -6940,3593 -6968,3572 -6996,3550 -7051,3540 -7132,3540 L -7132,3498 C -6986,3446 -6904,3420 -6886,3420 -6855,3420 -6826,3440 -6797,3481 -6769,3521 -6755,3563 -6755,3606 Z M -7051,4004 C -7051,4028 -7044,4048 -7029,4064 -7015,4079 -6999,4087 -6981,4087 -6963,4087 -6944,4080 -6924,4066 L -6924,3747 C -6948,3756 -6966,3763 -6977,3768 -6989,3774 -7001,3783 -7015,3795 -7039,3818 -7051,3857 -7051,3912 L -7051,4004 Z"/>
    </g>
   </g>
   <g class="com.sun.star.drawing.ClosedBezierShape">
    <g id="id7">
     <rect class="BoundingBox" stroke="none" fill="none" x="-6681" y="3421" width="537" height="1056"/>
     <path fill="rgb(0,0,0)" stroke="none" d="M -6387,3552 C -6405,3552 -6423,3559 -6442,3574 L -6442,4134 C -6417,4134 -6390,4126 -6360,4110 -6330,4094 -6315,4077 -6315,4059 L -6315,3656 C -6315,3586 -6339,3552 -6387,3552 Z M -6612,4379 L -6612,3638 C -6612,3616 -6618,3595 -6630,3574 -6642,3553 -6659,3542 -6680,3539 L -6680,3508 C -6674,3507 -6622,3478 -6526,3422 -6505,3431 -6485,3445 -6468,3463 -6450,3482 -6442,3499 -6442,3515 -6341,3453 -6282,3422 -6265,3422 -6259,3422 -6246,3429 -6228,3443 -6210,3458 -6191,3479 -6173,3507 -6155,3535 -6145,3563 -6145,3592 L -6145,4095 C -6145,4101 -6187,4121 -6270,4153 -6354,4186 -6411,4206 -6443,4214 L -6443,4267 C -6443,4324 -6424,4356 -6385,4364 L -6385,4395 -6528,4475 C -6548,4467 -6568,4453 -6586,4434 -6604,4414 -6612,4396 -6612,4379 Z"/>
    </g>
   </g>
   <g class="com.sun.star.drawing.ClosedBezierShape">
    <g id="id8">
     <rect class="BoundingBox" stroke="none" fill="none" x="-6065" y="3273" width="301" height="953"/>
     <path fill="rgb(0,0,0)" stroke="none" d="M -5837,3274 L -5837,3442 -5765,3442 -5779,3511 -5837,3511 -5837,4016 C -5837,4073 -5818,4105 -5779,4113 L -5779,4144 -5922,4224 C -5942,4216 -5962,4202 -5980,4183 -5998,4163 -6006,4145 -6006,4128 L -6006,3512 -6064,3512 -6050,3453 C -6022,3453 -5988,3434 -5948,3396 -5908,3357 -5884,3317 -5877,3274 L -5837,3274 Z"/>
    </g>
   </g>
   <g class="com.sun.star.drawing.ClosedBezierShape">
    <g id="id9">
     <rect class="BoundingBox" stroke="none" fill="none" x="-5767" y="3418" width="606" height="808"/>
     <path fill="rgb(0,0,0)" stroke="none" d="M -5528,4004 C -5528,4028 -5521,4048 -5506,4064 -5492,4079 -5475,4087 -5458,4087 -5440,4087 -5421,4080 -5401,4066 L -5401,3627 C -5401,3570 -5420,3537 -5459,3530 L -5459,3499 -5316,3418 C -5296,3427 -5277,3441 -5259,3460 -5241,3479 -5232,3497 -5232,3514 L -5232,3993 C -5232,4024 -5225,4051 -5212,4073 -5199,4096 -5182,4107 -5163,4107 L -5163,4138 C -5169,4139 -5221,4168 -5316,4224 -5338,4215 -5358,4201 -5375,4182 -5392,4164 -5401,4147 -5401,4130 L -5578,4224 C -5580,4222 -5585,4220 -5590,4216 -5596,4213 -5606,4206 -5619,4195 -5633,4184 -5645,4173 -5655,4161 -5683,4130 -5697,4094 -5697,4055 L -5697,3627 C -5697,3575 -5721,3545 -5767,3535 L -5767,3504 -5613,3418 C -5592,3427 -5573,3441 -5555,3460 -5537,3479 -5528,3497 -5528,3514 L -5528,4004 Z"/>
    </g>
   </g>
   <g class="com.sun.star.drawing.ClosedBezierShape">
    <g id="id10">
     <rect class="BoundingBox" stroke="none" fill="none" x="-5162" y="3420" width="508" height="806"/>
     <path fill="rgb(0,0,0)" stroke="none" d="M -5162,3505 L -5006,3420 C -5000,3422 -4992,3424 -4983,3428 -4974,3431 -4962,3440 -4946,3455 -4931,3470 -4923,3487 -4923,3506 -4918,3504 -4896,3489 -4856,3462 -4816,3434 -4791,3420 -4779,3420 -4749,3420 -4721,3440 -4695,3479 -4668,3519 -4655,3555 -4655,3588 L -4655,3657 -4800,3739 -4824,3719 C -4824,3640 -4832,3595 -4847,3584 -4864,3572 -4889,3566 -4923,3566 L -4923,4015 C -4923,4073 -4904,4105 -4865,4113 L -4865,4144 -5008,4224 C -5028,4216 -5048,4202 -5066,4183 -5084,4163 -5092,4145 -5092,4128 L -5092,3660 C -5092,3619 -5100,3588 -5114,3567 -5129,3546 -5145,3536 -5162,3536 L -5162,3505 Z"/>
    </g>
   </g>
   <g class="com.sun.star.drawing.ClosedBezierShape">
    <g id="id11">
     <rect class="BoundingBox" stroke="none" fill="none" x="-4555" y="3420" width="468" height="805"/>
     <path fill="rgb(0,0,0)" stroke="none" d="M -4209,3420 C -4204,3420 -4192,3427 -4173,3442 -4155,3456 -4136,3477 -4117,3503 -4098,3528 -4089,3554 -4089,3578 L -4089,3815 C -4089,3832 -4114,3853 -4164,3877 -4213,3901 -4262,3921 -4308,3937 -4355,3952 -4380,3960 -4384,3960 -4384,4033 -4352,4077 -4289,4094 -4258,4102 -4221,4106 -4178,4106 L -4178,4146 C -4332,4198 -4414,4224 -4425,4224 -4453,4224 -4482,4204 -4511,4164 -4540,4124 -4554,4077 -4554,4024 L -4554,3550 C -4554,3543 -4501,3520 -4394,3480 -4286,3440 -4225,3420 -4209,3420 Z M -4258,3644 C -4258,3618 -4264,3596 -4276,3577 -4289,3559 -4304,3550 -4323,3550 -4342,3550 -4363,3557 -4385,3571 L -4385,3897 C -4300,3873 -4258,3822 -4258,3744 L -4258,3644 Z"/>
    </g>
   </g>
   <g class="com.sun.star.drawing.ClosedBezierShape">
    <g id="id12">
     <rect class="BoundingBox" stroke="none" fill="none" x="-6886" y="5018" width="306" height="524"/>
     <path fill="rgb(0,0,0)" stroke="none" d="M -6885,5407 L -6885,5102 C -6885,5098 -6850,5083 -6781,5057 -6711,5031 -6671,5018 -6660,5018 -6650,5018 -6634,5031 -6613,5056 -6592,5081 -6582,5103 -6582,5124 L -6582,5456 C -6582,5461 -6615,5476 -6682,5502 -6749,5528 -6790,5541 -6805,5541 -6820,5541 -6837,5528 -6856,5502 -6876,5475 -6885,5444 -6885,5407 Z M -6728,5457 C -6717,5457 -6705,5452 -6693,5442 L -6693,5171 C -6693,5126 -6708,5103 -6739,5103 -6752,5103 -6764,5108 -6775,5117 L -6775,5389 C -6775,5434 -6760,5457 -6728,5457 Z"/>
    </g>
   </g>
   <g class="com.sun.star.drawing.ClosedBezierShape">
    <g id="id13">
     <rect class="BoundingBox" stroke="none" fill="none" x="-6533" y="5017" width="395" height="525"/>
     <path fill="rgb(0,0,0)" stroke="none" d="M -6487,5479 L -6487,5168 C -6487,5147 -6491,5130 -6500,5115 -6509,5101 -6519,5093 -6532,5093 L -6532,5073 C -6528,5072 -6494,5054 -6432,5017 -6428,5018 -6423,5020 -6417,5022 -6410,5024 -6402,5030 -6392,5040 -6382,5050 -6377,5061 -6377,5074 -6373,5072 -6363,5066 -6346,5057 -6301,5031 -6274,5018 -6265,5018 -6246,5018 -6227,5031 -6210,5057 -6193,5082 -6185,5106 -6185,5127 L -6185,5405 C -6185,5439 -6170,5459 -6140,5465 L -6140,5485 -6240,5541 C -6253,5535 -6266,5526 -6277,5514 -6289,5501 -6295,5490 -6295,5479 L -6295,5213 C -6295,5178 -6298,5152 -6306,5134 -6314,5116 -6327,5107 -6347,5107 L -6377,5112 -6377,5405 C -6377,5443 -6365,5464 -6340,5469 L -6340,5489 -6432,5541 C -6446,5535 -6458,5526 -6470,5514 -6481,5501 -6487,5490 -6487,5479 Z"/>
    </g>
   </g>
   <g class="com.sun.star.drawing.ClosedBezierShape">
    <g id="id14">
     <rect class="BoundingBox" stroke="none" fill="none" x="-9770" y="6127" width="1048" height="1062"/>
     <path fill="rgb(0,0,0)" stroke="none" d="M -8723,7188 L -8979,7188 -8979,6453 C -8979,6444 -8981,6435 -8985,6426 -8988,6418 -8993,6410 -9000,6404 -9006,6398 -9013,6393 -9022,6389 -9030,6386 -9039,6384 -9049,6384 -9059,6384 -9068,6386 -9076,6389 -9084,6393 -9092,6398 -9098,6404 -9104,6410 -9109,6418 -9113,6426 -9116,6434 -9118,6443 -9118,6453 L -9118,7188 -9374,7188 -9374,6453 C -9374,6443 -9376,6434 -9380,6426 -9383,6418 -9388,6410 -9394,6404 -9401,6398 -9408,6393 -9416,6389 -9425,6386 -9434,6384 -9444,6384 -9453,6384 -9463,6386 -9471,6389 -9479,6393 -9487,6398 -9493,6404 -9499,6410 -9504,6418 -9507,6426 -9511,6434 -9513,6443 -9513,6453 L -9513,7188 -9769,7188 -9769,6453 C -9769,6408 -9761,6366 -9744,6326 -9727,6287 -9704,6252 -9674,6223 -9645,6193 -9610,6170 -9570,6153 -9531,6136 -9489,6128 -9444,6128 -9403,6128 -9364,6135 -9327,6149 -9290,6164 -9263,6178 -9246,6194 -9229,6178 -9202,6164 -9165,6149 -9128,6135 -9089,6128 -9049,6128 -9004,6128 -8962,6136 -8922,6153 -8882,6170 -8848,6193 -8818,6223 -8789,6252 -8766,6287 -8749,6326 -8732,6366 -8723,6408 -8723,6453 L -8723,7188 Z"/>
    </g>
   </g>
   <g class="com.sun.star.drawing.ClosedBezierShape">
    <g id="id15">
     <rect class="BoundingBox" stroke="none" fill="none" x="-8675" y="6363" width="814" height="840"/>
     <path fill="rgb(0,0,0)" stroke="none" d="M -7862,7188 L -7952,7188 -8015,7101 C -8017,7104 -8029,7112 -8050,7127 -8071,7142 -8094,7155 -8118,7166 -8141,7177 -8166,7186 -8191,7192 -8216,7199 -8242,7202 -8268,7202 -8324,7202 -8376,7193 -8426,7174 -8475,7155 -8518,7127 -8555,7091 -8592,7055 -8622,7011 -8643,6959 -8664,6907 -8675,6849 -8675,6783 -8675,6722 -8664,6666 -8643,6614 -8622,6562 -8592,6518 -8556,6481 -8519,6444 -8475,6415 -8426,6394 -8377,6374 -8324,6363 -8268,6363 -8242,6363 -8216,6367 -8191,6373 -8165,6380 -8140,6389 -8117,6400 -8093,6411 -8071,6424 -8049,6440 -8028,6455 -8016,6464 -8012,6467 L -7951,6393 -7862,6393 -7862,7188 Z M -8110,6783 C -8110,6761 -8115,6740 -8123,6719 -8132,6699 -8143,6680 -8158,6664 -8172,6648 -8189,6636 -8208,6626 -8227,6617 -8247,6612 -8268,6612 -8290,6612 -8311,6616 -8330,6623 -8349,6630 -8366,6641 -8379,6655 -8393,6669 -8404,6687 -8413,6708 -8421,6730 -8425,6755 -8425,6783 -8425,6812 -8421,6837 -8413,6858 -8404,6880 -8393,6897 -8379,6911 -8366,6926 -8349,6936 -8330,6944 -8311,6951 -8290,6955 -8268,6955 -8247,6955 -8227,6950 -8208,6940 -8189,6931 -8172,6918 -8158,6902 -8143,6886 -8132,6868 -8123,6847 -8115,6827 -8110,6805 -8110,6783 Z"/>
    </g>
   </g>
   <g class="com.sun.star.drawing.ClosedBezierShape">
    <g id="id16">
     <rect class="BoundingBox" stroke="none" fill="none" x="-7806" y="6392" width="725" height="797"/>
     <path fill="rgb(0,0,0)" stroke="none" d="M -7346,7188 L -7805,7188 -7805,6942 -7346,6942 C -7341,6942 -7337,6940 -7334,6937 -7330,6933 -7328,6929 -7328,6924 -7328,6924 -7329,6923 -7331,6922 -7332,6922 -7337,6921 -7346,6921 L -7542,6921 C -7578,6921 -7613,6914 -7645,6900 -7677,6886 -7705,6867 -7728,6843 -7752,6819 -7771,6791 -7785,6759 -7798,6727 -7805,6693 -7805,6656 -7805,6620 -7798,6586 -7785,6553 -7771,6521 -7752,6493 -7728,6470 -7705,6446 -7677,6427 -7645,6413 -7612,6400 -7578,6393 -7542,6393 L -7131,6393 -7131,6639 -7542,6639 C -7546,6639 -7550,6641 -7554,6644 -7557,6648 -7559,6652 -7559,6656 -7559,6662 -7557,6666 -7554,6670 -7550,6673 -7546,6675 -7542,6675 L -7346,6675 C -7310,6675 -7276,6681 -7244,6693 -7213,6705 -7185,6722 -7161,6744 -7137,6766 -7118,6793 -7103,6824 -7089,6854 -7082,6888 -7082,6924 -7082,6961 -7089,6995 -7103,7027 -7117,7059 -7136,7087 -7160,7111 -7183,7135 -7211,7154 -7244,7167 -7276,7181 -7310,7188 -7346,7188 Z"/>
    </g>
   </g>
   <g class="com.sun.star.drawing.ClosedBezierShape">
    <g id="id17">
     <rect class="BoundingBox" stroke="none" fill="none" x="-7096" y="6098" width="625" height="1091"/>
     <path fill="rgb(0,0,0)" stroke="none" d="M -6644,7188 C -6694,7188 -6740,7179 -6784,7160 -6827,7141 -6865,7115 -6898,7083 -6931,7050 -6956,7012 -6975,6968 -6994,6925 -7003,6878 -7003,6829 L -7003,6639 -7095,6639 -7095,6393 -7003,6393 -7003,6098 -6757,6098 -6757,6393 -6472,6393 -6472,6639 -6757,6639 -6757,6829 C -6757,6844 -6754,6859 -6749,6873 -6743,6886 -6735,6898 -6724,6909 -6714,6919 -6702,6927 -6688,6933 -6674,6939 -6660,6942 -6644,6942 L -6472,6942 -6472,7188 -6644,7188 Z"/>
    </g>
   </g>
   <g class="com.sun.star.drawing.ClosedBezierShape">
    <g id="id18">
     <rect class="BoundingBox" stroke="none" fill="none" x="-6467" y="6363" width="815" height="840"/>
     <path fill="rgb(0,0,0)" stroke="none" d="M -5654,6783 C -5654,6842 -5664,6897 -5685,6949 -5707,7000 -5736,7044 -5772,7081 -5809,7119 -5852,7148 -5901,7170 -5950,7191 -6003,7202 -6060,7202 -6116,7202 -6168,7191 -6218,7170 -6267,7148 -6310,7119 -6347,7081 -6384,7044 -6413,7000 -6434,6949 -6455,6897 -6466,6842 -6466,6783 -6466,6723 -6455,6668 -6434,6616 -6413,6565 -6384,6521 -6347,6483 -6310,6446 -6267,6417 -6218,6395 -6168,6374 -6116,6363 -6060,6363 -6004,6363 -5951,6373 -5901,6393 -5852,6413 -5809,6442 -5772,6479 -5736,6516 -5707,6560 -5685,6612 -5664,6664 -5654,6721 -5654,6783 Z M -5902,6783 C -5902,6757 -5906,6733 -5914,6712 -5923,6691 -5934,6673 -5949,6658 -5963,6643 -5979,6632 -5998,6624 -6018,6616 -6038,6612 -6060,6612 -6082,6612 -6102,6616 -6121,6624 -6140,6632 -6157,6643 -6171,6658 -6185,6673 -6196,6691 -6204,6712 -6212,6733 -6216,6757 -6216,6783 -6216,6808 -6212,6831 -6204,6852 -6196,6873 -6185,6891 -6170,6906 -6156,6921 -6140,6933 -6121,6942 -6102,6950 -6081,6955 -6060,6955 -6038,6955 -6018,6950 -5999,6942 -5979,6934 -5963,6923 -5949,6908 -5934,6894 -5923,6876 -5914,6854 -5906,6833 -5902,6809 -5902,6783 Z"/>
    </g>
   </g>
   <g class="com.sun.star.drawing.ClosedBezierShape">
    <g id="id19">
     <rect class="BoundingBox" stroke="none" fill="none" x="-5649" y="6098" width="814" height="1105"/>
     <path fill="rgb(0,0,0)" stroke="none" d="M -4837,7188 L -4926,7188 -4989,7101 C -4992,7104 -5004,7112 -5025,7127 -5046,7142 -5068,7155 -5092,7166 -5116,7177 -5140,7186 -5165,7192 -5191,7199 -5216,7202 -5243,7202 -5299,7202 -5351,7191 -5401,7170 -5450,7149 -5493,7120 -5530,7083 -5567,7045 -5596,7001 -5617,6950 -5638,6899 -5649,6843 -5649,6783 -5649,6724 -5638,6668 -5617,6617 -5596,6566 -5567,6521 -5530,6484 -5493,6446 -5450,6417 -5401,6395 -5351,6374 -5299,6363 -5243,6363 -5225,6363 -5206,6365 -5187,6368 -5167,6371 -5148,6376 -5129,6383 -5110,6390 -5092,6399 -5075,6411 -5058,6423 -5054,6434 -5064,6445 L -5085,6098 -4837,6098 -4837,7188 Z M -5085,6783 C -5085,6761 -5089,6740 -5097,6719 -5106,6699 -5117,6680 -5132,6664 -5147,6648 -5163,6636 -5182,6626 -5202,6617 -5222,6612 -5243,6612 -5265,6612 -5285,6616 -5304,6624 -5323,6631 -5340,6642 -5354,6657 -5368,6671 -5379,6689 -5387,6710 -5395,6731 -5399,6756 -5399,6783 -5399,6807 -5395,6829 -5387,6850 -5379,6871 -5367,6889 -5353,6905 -5339,6920 -5322,6932 -5303,6941 -5284,6950 -5264,6955 -5243,6955 -5222,6955 -5202,6950 -5182,6940 -5163,6931 -5147,6918 -5132,6902 -5117,6886 -5106,6868 -5097,6847 -5089,6827 -5085,6805 -5085,6783 Z"/>
    </g>
   </g>
   <g class="com.sun.star.drawing.ClosedBezierShape">
    <g id="id20">
     <rect class="BoundingBox" stroke="none" fill="none" x="-4794" y="6363" width="814" height="840"/>
     <path fill="rgb(0,0,0)" stroke="none" d="M -3982,6783 C -3982,6842 -3992,6897 -4013,6949 -4035,7000 -4064,7044 -4100,7081 -4137,7119 -4180,7148 -4229,7170 -4278,7191 -4331,7202 -4388,7202 -4444,7202 -4496,7191 -4546,7170 -4595,7148 -4638,7119 -4675,7081 -4712,7044 -4741,7000 -4762,6949 -4783,6897 -4794,6842 -4794,6783 -4794,6723 -4783,6668 -4762,6616 -4741,6565 -4712,6521 -4675,6483 -4638,6446 -4595,6417 -4546,6395 -4496,6374 -4444,6363 -4388,6363 -4332,6363 -4279,6373 -4229,6393 -4180,6413 -4137,6442 -4100,6479 -4064,6516 -4035,6560 -4013,6612 -3992,6664 -3982,6721 -3982,6783 Z M -4230,6783 C -4230,6757 -4234,6733 -4242,6712 -4251,6691 -4262,6673 -4277,6658 -4291,6643 -4307,6632 -4326,6624 -4346,6616 -4366,6612 -4388,6612 -4410,6612 -4430,6616 -4449,6624 -4468,6632 -4485,6643 -4499,6658 -4513,6673 -4524,6691 -4532,6712 -4540,6733 -4544,6757 -4544,6783 -4544,6808 -4540,6831 -4532,6852 -4524,6873 -4513,6891 -4498,6906 -4484,6921 -4468,6933 -4449,6942 -4430,6950 -4409,6955 -4388,6955 -4366,6955 -4346,6950 -4327,6942 -4307,6934 -4291,6923 -4277,6908 -4262,6894 -4251,6876 -4242,6854 -4234,6833 -4230,6809 -4230,6783 Z"/>
    </g>
   </g>
   <g class="com.sun.star.drawing.ClosedBezierShape">
    <g id="id21">
     <rect class="BoundingBox" stroke="none" fill="none" x="-3937" y="6376" width="720" height="813"/>
     <path fill="rgb(0,0,0)" stroke="none" d="M -3690,7188 L -3936,7188 -3936,6391 -3848,6391 -3797,6450 C -3779,6434 -3749,6418 -3707,6401 -3665,6385 -3622,6377 -3576,6377 -3527,6377 -3481,6386 -3437,6405 -3394,6424 -3356,6450 -3323,6482 -3291,6515 -3265,6553 -3246,6597 -3228,6641 -3218,6687 -3218,6737 L -3218,7188 -3465,7188 -3465,6737 C -3465,6722 -3468,6707 -3474,6693 -3480,6680 -3488,6668 -3498,6658 -3508,6648 -3520,6639 -3533,6634 -3547,6628 -3561,6625 -3576,6625 -3592,6625 -3607,6628 -3621,6634 -3635,6640 -3647,6648 -3657,6658 -3667,6668 -3675,6680 -3681,6693 -3687,6707 -3690,6722 -3690,6737 L -3690,7188 Z"/>
    </g>
   </g>
  </g>
 </g>
</svg>